<svg width="282" height="131" viewBox="0 0 282 131" fill="none" xmlns="http://www.w3.org/2000/svg">
<g id="CyberFrame4">
<g id="Group" opacity="0.1">
<path id="Vector" d="M280.682 120.33H2.85156V3.95996H280.682V120.33Z" fill="#0071BC"/>
</g>
<path id="Vector_2" d="M8.70078 128.28L1.80078 121.38V16.3798L13.9508 4.22976H100.801L105.691 9.11978H188.401L195.721 1.7998H263.101L279.271 17.9398V116.28L268.501 127.05H177.301L172.381 122.13H21.0008L14.9408 128.22L8.70078 128.28Z" stroke="#0071BC" stroke-width="3.6" stroke-miterlimit="10"/>
<path id="Vector_3" d="M21.3008 129.779L25.3508 125.729H169.201L173.491 130.02L21.3008 129.779Z" fill="#0071BC"/>
<path id="Vector_4" d="M107.102 4.07969L109.502 6.47969H186.902L189.452 3.92969L107.102 4.07969Z" fill="#0071BC"/>
<path id="Vector_5" d="M271.502 1.67969L279.752 9.92969V1.67969H271.502Z" fill="#0071BC"/>
<path id="Vector_6" opacity="0.3" d="M245.731 1.79993L273.571 29.6399V110.28L256.651 127.2H268.501L279.361 116.34V17.8799L262.831 1.37988H245.701" fill="#0071BC"/>
<path id="Vector_7" opacity="0.3" d="M27.2711 4.58955L6.54114 25.3195V70.6795L2.37109 74.8495V16.3795L14.5511 4.22949L27.2711 4.58955Z" fill="#0071BC"/>
</g>
</svg>
