<svg width="317" height="184" viewBox="0 0 317 184" fill="none" xmlns="http://www.w3.org/2000/svg">
<g opacity="0.1">
<path d="M313.8 180.451H0V2.85059H313.8V180.451Z" fill="#0071BC"/>
</g>
<path d="M3.15039 33.0002L34.2004 1.9502H171.75L193.59 23.7902H307.05L314.97 31.7102V171.3L304.41 181.86H59.5504L54.0004 176.28H8.85039L3.24037 170.64L3.15039 33.0002Z" stroke="#0071BC" stroke-width="3.6" stroke-miterlimit="10"/>
<path opacity="0.3" d="M186.75 2.10059L199.8 15.1506H309.45L314.49 20.1906V2.10059H186.75Z" fill="#0071BC"/>
<path d="M3.15039 176.101V183.301H55.0504L51.3004 179.551H6.15039L3.15039 176.101Z" fill="#0071BC"/>
<path d="M184.441 14.6403H180.451L172.261 6.42037H161.851L159.721 4.26035H139.651L137.281 1.86035H172.051L184.441 14.6403Z" fill="#0071BC"/>
<path d="M193.471 8.82031H198.751L205.021 15.0603H199.951L193.471 8.82031Z" fill="#0071BC"/>
<path d="M203.07 8.82031H208.35L214.62 15.0603H209.55L203.07 8.82031Z" fill="#0071BC"/>
<path d="M212.67 8.82031H217.95L224.22 15.0603H219.15L212.67 8.82031Z" fill="#0071BC"/>
<path d="M222.271 8.82031H227.552L233.821 15.0603H228.752L222.271 8.82031Z" fill="#0071BC"/>
<path d="M231.871 8.82031H237.151L243.421 15.0603H238.351L231.871 8.82031Z" fill="#0071BC"/>
<path d="M27.7504 1.7998L3.15039 26.3998V1.7998H27.7504Z" stroke="#0071BC" stroke-width="3.6" stroke-miterlimit="10"/>
<path d="M314.971 145.92L313.321 147.57V169.5L302.402 180.45H275.252L274.021 181.68H304.352L314.792 171.24L314.971 145.92Z" fill="#0071BC"/>
<path d="M315.45 174.601L307.5 182.551H315.45V174.601Z" fill="#0071BC"/>
</svg>
