<svg width="289" height="144" viewBox="0 0 289 144" fill="none" xmlns="http://www.w3.org/2000/svg">
<g id="CyberFrame3">
<g id="Group" opacity="0.1">
<path id="Vector" d="M288.48 139.891H10.6504V14.8506H288.48V139.891Z" fill="#0071BC"/>
</g>
<path id="Vector_2" d="M11.1008 1.80078L1.80078 11.1008V126.601L9.15078 133.951H167.701L175.141 141.391H274.501L285.961 129.961V22.5008L277.831 14.4008H113.701L101.281 1.95078L11.1008 1.80078Z" stroke="#0071BC" stroke-width="3.6" stroke-miterlimit="10"/>
<path id="Vector_3" opacity="0.3" d="M112.801 1.80078L120.151 9.15078H276.901L283.741 2.34076L112.801 1.80078Z" fill="#0071BC"/>
<path id="Vector_4" d="M285.901 18.9012V5.70117L279.301 12.3012L285.901 18.9012Z" fill="#0071BC"/>
<path id="Vector_5" d="M1.80078 134.101V141.301H8.70078L1.80078 134.101Z" fill="#0071BC"/>
<path id="Vector_6" d="M165 137.101L168.9 141.001H165L161.4 137.101H165Z" fill="#0071BC"/>
<path id="Vector_7" d="M159.301 137.101L163.201 141.001H159.301L155.701 137.101H159.301Z" fill="#0071BC"/>
<path id="Vector_8" d="M153.6 137.101L157.5 141.001H153.6L150 137.101H153.6Z" fill="#0071BC"/>
<path id="Vector_9" d="M147.901 137.101L151.801 141.001H147.901L144.301 137.101H147.901Z" fill="#0071BC"/>
<path id="Vector_10" d="M142.2 137.101L146.1 141.001H142.2L138.6 137.101H142.2Z" fill="#0071BC"/>
<path id="Vector_11" d="M136.5 137.101L140.4 141.001H136.5L132.9 137.101H136.5Z" fill="#0071BC"/>
<path id="Vector_12" d="M130.801 137.101L134.701 141.001H130.801L127.201 137.101H130.801Z" fill="#0071BC"/>
<path id="Vector_13" d="M125.1 137.101L129 141.001H125.1L121.5 137.101H125.1Z" fill="#0071BC"/>
<path id="Vector_14" d="M119.4 137.101L123.3 141.001H14.1L10.5 137.101H119.4Z" fill="#0071BC"/>
<path id="Vector_15" d="M21.6605 1.83105L17.4605 6.06105H12.9006L5.58052 13.3811V63.6011L1.56055 67.6211V11.1011L10.6805 1.98105L21.6605 1.83105Z" fill="#0071BC"/>
</g>
</svg>
